<svg width="299" height="299" viewBox="0 0 299 299" fill="none" xmlns="http://www.w3.org/2000/svg">
  <circle cx="149.5" cy="149.5" r="149.5" fill="black" />
  <path d="M73.616 32.208H103.104V223.424H214.976V252H73.616V32.208Z" fill="white" />
  <path
    d="M109.8 164.36C109.8 154.44 112.12 145.48 116.76 137.48C121.56 129.48 128.12 123.16 136.44 118.52C144.76 113.88 154.28 111.56 165 111.56C175.72 111.56 185.16 113.88 193.32 118.52C201.48 123.16 207.8 129.48 212.28 137.48C216.92 145.48 219.24 154.44 219.24 164.36C219.24 174.28 216.92 183.24 212.28 191.24C207.8 199.24 201.4 205.64 193.08 210.44C184.92 215.08 175.4 217.4 164.52 217.4C153.96 217.4 144.52 215.24 136.2 210.92C128.04 206.6 121.56 200.44 116.76 192.44C112.12 184.44 109.8 175.08 109.8 164.36ZM132.36 164.6C132.36 171 133.72 176.84 136.44 182.12C139.32 187.24 143.16 191.32 147.96 194.36C152.76 197.4 158.2 198.92 164.28 198.92C170.52 198.92 176.04 197.4 180.84 194.36C185.64 191.32 189.4 187.24 192.12 182.12C195 176.84 196.44 171 196.44 164.6C196.44 158.2 195 152.44 192.12 147.32C189.4 142.04 185.64 137.88 180.84 134.84C176.04 131.64 170.52 130.04 164.28 130.04C158.2 130.04 152.68 131.64 147.72 134.84C142.92 138.04 139.16 142.28 136.44 147.56C133.72 152.68 132.36 158.36 132.36 164.6Z"
    fill="white" />
</svg>