<svg viewBox="0 0 384 233" fill="none" xmlns="http://www.w3.org/2000/svg">
  <path d="M0.616001 0.207985H30.104V191.424H141.976V220H0.616001V0.207985Z" fill="currentColor" />
  <path
    d="M36.8 132.36C36.8 122.44 39.12 113.48 43.76 105.48C48.56 97.48 55.12 91.16 63.44 86.52C71.76 81.88 81.28 79.56 92 79.56C102.72 79.56 112.16 81.88 120.32 86.52C128.48 91.16 134.8 97.48 139.28 105.48C143.92 113.48 146.24 122.44 146.24 132.36C146.24 142.28 143.92 151.24 139.28 159.24C134.8 167.24 128.4 173.64 120.08 178.44C111.92 183.08 102.4 185.4 91.52 185.4C80.96 185.4 71.52 183.24 63.2 178.92C55.04 174.6 48.56 168.44 43.76 160.44C39.12 152.44 36.8 143.08 36.8 132.36ZM59.36 132.6C59.36 139 60.72 144.84 63.44 150.12C66.32 155.24 70.16 159.32 74.96 162.36C79.76 165.4 85.2 166.92 91.28 166.92C97.52 166.92 103.04 165.4 107.84 162.36C112.64 159.32 116.4 155.24 119.12 150.12C122 144.84 123.44 139 123.44 132.6C123.44 126.2 122 120.44 119.12 115.32C116.4 110.04 112.64 105.88 107.84 102.84C103.04 99.64 97.52 98.04 91.28 98.04C85.2 98.04 79.68 99.64 74.72 102.84C69.92 106.04 66.16 110.28 63.44 115.56C60.72 120.68 59.36 126.36 59.36 132.6ZM209.821 232.2C198.781 232.2 189.581 230.28 182.221 226.44C174.861 222.76 168.061 218.04 161.821 212.28L175.021 196.92C180.141 202.04 185.421 205.88 190.861 208.44C196.301 211.16 202.461 212.52 209.341 212.52C220.541 212.52 229.101 209.8 235.021 204.36C240.941 199.08 243.981 192.04 244.141 183.24V165C240.781 170.92 235.581 175.8 228.541 179.64C221.501 183.48 213.181 185.4 203.581 185.4C194.301 185.4 185.821 183.08 178.141 178.44C170.621 173.8 164.541 167.56 159.901 159.72C155.421 151.72 153.181 142.76 153.181 132.84C153.181 122.44 155.581 113.24 160.381 105.24C165.181 97.24 171.501 91 179.341 86.52C187.181 81.88 195.741 79.56 205.021 79.56C213.661 79.56 221.501 81.24 228.541 84.6C235.581 87.96 240.861 92.28 244.381 97.56L246.301 83.64H266.701V183.72C266.701 192.68 264.381 200.84 259.741 208.2C255.101 215.56 248.541 221.4 240.061 225.72C231.581 230.04 221.501 232.2 209.821 232.2ZM175.741 132.12C175.741 138.68 177.261 144.6 180.301 149.88C183.341 155 187.421 159.16 192.541 162.36C197.821 165.4 203.661 166.92 210.061 166.92C218.701 166.92 226.061 164.6 232.141 159.96C238.381 155.16 242.381 149.08 244.141 141.72V122.04C242.061 115 237.901 109.24 231.661 104.76C225.421 100.28 218.221 98.04 210.061 98.04C203.501 98.04 197.581 99.48 192.301 102.36C187.181 105.24 183.101 109.24 180.061 114.36C177.181 119.48 175.741 125.4 175.741 132.12ZM322.773 186.84C313.653 186.84 306.133 184.12 300.213 178.68C294.293 173.08 291.253 165.88 291.093 157.08V83.64H313.413V149.16C313.733 154.6 315.333 159 318.213 162.36C321.093 165.72 325.573 167.48 331.653 167.64C337.093 167.64 342.053 166.04 346.533 162.84C351.013 159.48 354.533 155 357.093 149.4C359.813 143.64 361.173 137.16 361.173 129.96V83.64H383.493V183H363.333L361.653 164.28C358.453 170.84 353.333 176.28 346.293 180.6C339.413 184.76 331.573 186.84 322.773 186.84Z"
    fill="currentColor" />
</svg>