<svg viewBox="0 0 388 215" fill="none" xmlns="http://www.w3.org/2000/svg">
  <g clip-path="url(#clip0)">
    <path
      d="M228.41 108.326C228.41 104.17 227.594 100.162 225.961 96.3027C224.402 92.3691 222.25 88.918 219.504 85.9492C216.758 82.9062 213.529 80.4941 209.818 78.7129C206.182 76.8574 202.285 75.9297 198.129 75.9297C193.973 75.9297 190.039 76.6348 186.328 78.0449C182.691 79.4551 179.5 81.5332 176.754 84.2793C174.082 87.0254 171.967 90.4395 170.408 94.5215C168.85 98.5293 168.07 103.131 168.07 108.326C168.07 113.299 168.85 117.789 170.408 121.797C171.967 125.73 174.082 129.107 176.754 131.928C179.5 134.748 182.691 136.938 186.328 138.496C190.039 139.98 193.973 140.723 198.129 140.723C202.285 140.723 206.182 139.832 209.818 138.051C213.529 136.195 216.758 133.783 219.504 130.814C222.25 127.771 224.402 124.32 225.961 120.461C227.594 116.527 228.41 112.482 228.41 108.326ZM259.025 153.971C259.025 162.357 257.43 170.225 254.238 177.572C251.047 184.92 246.668 191.34 241.102 196.832C235.609 202.324 229.152 206.666 221.73 209.857C214.383 213.049 206.516 214.645 198.129 214.645L182.877 214.422V184.029L197.906 184.252C202.656 184.252 206.701 183.621 210.041 182.359C213.381 181.172 216.201 179.502 218.502 177.35C220.803 175.271 222.621 172.859 223.957 170.113C225.367 167.367 226.48 164.473 227.297 161.43C226.109 163.359 224.402 164.955 222.176 166.217C219.949 167.404 217.463 168.369 214.717 169.111C212.045 169.928 209.225 170.484 206.256 170.781C203.361 171.078 200.652 171.227 198.129 171.227C189.742 171.227 181.838 169.779 174.416 166.885C167.068 163.99 160.611 159.871 155.045 154.527C149.553 149.109 145.211 142.504 142.02 134.711C138.828 126.918 137.232 118.123 137.232 108.326C137.232 99.3457 138.828 90.9961 142.02 83.2773C145.211 75.5586 149.553 68.8789 155.045 63.2383C160.611 57.5977 167.068 53.1816 174.416 49.9902C181.838 46.7988 189.742 45.2031 198.129 45.2031C201.988 45.2031 205.811 45.6855 209.596 46.6504C213.381 47.6152 217.055 48.9512 220.617 50.6582C224.18 52.3652 227.557 54.3691 230.748 56.6699C234.014 58.9707 237.057 61.457 239.877 64.1289L251.678 49.9902H259.025V153.971Z"
      fill="currentColor" />
    <path d="M149.773 213.5H0.742188V0.640625H43.3438V170.898H149.773V213.5Z" fill="currentColor" />
    <path
      d="M162.803 108.326C162.803 117.232 161.207 125.545 158.016 133.264C154.824 140.908 150.482 147.551 144.99 153.191C139.498 158.758 133.041 163.174 125.619 166.439C118.271 169.631 110.367 171.227 101.906 171.227C93.5195 171.227 85.6152 169.631 78.1934 166.439C70.8457 163.174 64.3887 158.758 58.8223 153.191C53.3301 147.551 48.9883 140.908 45.7969 133.264C42.6055 125.545 41.0098 117.232 41.0098 108.326C41.0098 99.2715 42.6055 90.8848 45.7969 83.166C48.9883 75.4473 53.3301 68.8047 58.8223 63.2383C64.3887 57.5977 70.8457 53.1816 78.1934 49.9902C85.6152 46.7988 93.5195 45.2031 101.906 45.2031C110.367 45.2031 118.271 46.7246 125.619 49.7676C133.041 52.7363 139.498 57.0039 144.99 62.5703C150.482 68.0625 154.824 74.7051 158.016 82.4981C161.207 90.2168 162.803 98.8262 162.803 108.326ZM132.188 108.326C132.188 103.428 131.371 99.0117 129.738 95.0781C128.18 91.0703 126.027 87.6563 123.281 84.8359C120.535 81.9414 117.307 79.752 113.596 78.2676C109.959 76.709 106.062 75.9297 101.906 75.9297C97.75 75.9297 93.8164 76.709 90.1055 78.2676C86.4688 79.752 83.2773 81.9414 80.5312 84.8359C77.8594 87.6563 75.7441 91.0703 74.1855 95.0781C72.627 99.0117 71.8477 103.428 71.8477 108.326C71.8477 112.928 72.627 117.195 74.1855 121.129C75.7441 125.063 77.8594 128.477 80.5312 131.371C83.2773 134.266 86.4688 136.566 90.1055 138.273C93.8164 139.906 97.75 140.723 101.906 140.723C106.062 140.723 109.959 139.943 113.596 138.385C117.307 136.826 120.535 134.637 123.281 131.816C126.027 128.996 128.18 125.582 129.738 121.574C131.371 117.566 132.188 113.15 132.188 108.326Z"
      fill="currentColor" />
    <path
      d="M370.193 155.084C367.744 157.311 365.109 159.426 362.289 161.43C359.543 163.359 356.648 165.066 353.605 166.551C350.562 167.961 347.408 169.074 344.143 169.891C340.951 170.781 337.686 171.227 334.346 171.227C326.998 171.227 320.096 169.928 313.639 167.33C307.182 164.732 301.504 161.059 296.605 156.309C291.781 151.484 287.959 145.658 285.139 138.83C282.393 131.928 281.02 124.209 281.02 115.674V49.7676H311.301V115.674C311.301 119.682 311.895 123.281 313.082 126.473C314.344 129.59 316.014 132.225 318.092 134.377C320.17 136.529 322.582 138.162 325.328 139.275C328.148 140.389 331.154 140.945 334.346 140.945C337.463 140.945 340.395 140.24 343.141 138.83C345.961 137.346 348.41 135.416 350.488 133.041C352.566 130.666 354.199 127.994 355.387 125.025C356.574 121.982 357.168 118.865 357.168 115.674V49.7676H387.561V169H380.213L370.193 155.084Z"
      fill="currentColor" />
  </g>
  <defs>
    <clipPath id="clip0">
      <rect width="465" height="381.991" fill="white" transform="translate(-8 -66.9905)" />
    </clipPath>
  </defs>
</svg>