<svg viewBox="0 0 390 227" fill="none" xmlns="http://www.w3.org/2000/svg">
  <path d="M0.616001 0.207985H30.104V191.424H141.976V220H0.616001V0.207985Z" fill="currentColor" />
  <path
    d="M42.8 126.36C42.8 116.44 45.12 107.48 49.76 99.48C54.56 91.48 61.12 85.16 69.44 80.52C77.76 75.88 87.28 73.56 98 73.56C108.72 73.56 118.16 75.88 126.32 80.52C134.48 85.16 140.8 91.48 145.28 99.48C149.92 107.48 152.24 116.44 152.24 126.36C152.24 136.28 149.92 145.24 145.28 153.24C140.8 161.24 134.4 167.64 126.08 172.44C117.92 177.08 108.4 179.4 97.52 179.4C86.96 179.4 77.52 177.24 69.2 172.92C61.04 168.6 54.56 162.44 49.76 154.44C45.12 146.44 42.8 137.08 42.8 126.36ZM65.36 126.6C65.36 133 66.72 138.84 69.44 144.12C72.32 149.24 76.16 153.32 80.96 156.36C85.76 159.4 91.2 160.92 97.28 160.92C103.52 160.92 109.04 159.4 113.84 156.36C118.64 153.32 122.4 149.24 125.12 144.12C128 138.84 129.44 133 129.44 126.6C129.44 120.2 128 114.44 125.12 109.32C122.4 104.04 118.64 99.88 113.84 96.84C109.04 93.64 103.52 92.04 97.28 92.04C91.2 92.04 85.68 93.64 80.72 96.84C75.92 100.04 72.16 104.28 69.44 109.56C66.72 114.68 65.36 120.36 65.36 126.6ZM215.821 226.2C204.781 226.2 195.581 224.28 188.221 220.44C180.861 216.76 174.061 212.04 167.821 206.28L181.021 190.92C186.141 196.04 191.421 199.88 196.861 202.44C202.301 205.16 208.461 206.52 215.341 206.52C226.541 206.52 235.101 203.8 241.021 198.36C246.941 193.08 249.981 186.04 250.141 177.24V159C246.781 164.92 241.581 169.8 234.541 173.64C227.501 177.48 219.181 179.4 209.581 179.4C200.301 179.4 191.821 177.08 184.141 172.44C176.621 167.8 170.541 161.56 165.901 153.72C161.421 145.72 159.181 136.76 159.181 126.84C159.181 116.44 161.581 107.24 166.381 99.24C171.181 91.24 177.501 85 185.341 80.52C193.181 75.88 201.741 73.56 211.021 73.56C219.661 73.56 227.501 75.24 234.541 78.6C241.581 81.96 246.861 86.28 250.381 91.56L252.301 77.64H272.701V177.72C272.701 186.68 270.381 194.84 265.741 202.2C261.101 209.56 254.541 215.4 246.061 219.72C237.581 224.04 227.501 226.2 215.821 226.2ZM181.741 126.12C181.741 132.68 183.261 138.6 186.301 143.88C189.341 149 193.421 153.16 198.541 156.36C203.821 159.4 209.661 160.92 216.061 160.92C224.701 160.92 232.061 158.6 238.141 153.96C244.381 149.16 248.381 143.08 250.141 135.72V116.04C248.061 109 243.901 103.24 237.661 98.76C231.421 94.28 224.221 92.04 216.061 92.04C209.501 92.04 203.581 93.48 198.301 96.36C193.181 99.24 189.101 103.24 186.061 108.36C183.181 113.48 181.741 119.4 181.741 126.12ZM328.773 180.84C319.653 180.84 312.133 178.12 306.213 172.68C300.293 167.08 297.253 159.88 297.093 151.08V77.64H319.413V143.16C319.733 148.6 321.333 153 324.213 156.36C327.093 159.72 331.573 161.48 337.653 161.64C343.093 161.64 348.053 160.04 352.533 156.84C357.013 153.48 360.533 149 363.093 143.4C365.813 137.64 367.173 131.16 367.173 123.96V77.64H389.493V177H369.333L367.653 158.28C364.453 164.84 359.333 170.28 352.293 174.6C345.413 178.76 337.573 180.84 328.773 180.84Z"
    fill="currentColor" />
</svg>